<?xml version="1.0" encoding="UTF-8"?>
<svg id="_圖層_1" data-name="圖層 1" xmlns="http://www.w3.org/2000/svg" viewBox="0 0 50 40">
  <defs>
    <style>
      .cls-1 {
        fill: #fff;
      }
    </style>
  </defs>
  <path class="cls-1" d="M26.85,13.16c.83,0,1.75,.05,2.79,.16,1.85,.19,3.16,.45,4.25,.85,1.08,.4,1.98,.94,3.08,1.69,.69,.47,1.35,.99,1.87,1.48,.24,.23,.42,.41,.54,.56-.08,.08-.17,.16-.24,.23-.08-.04-.16-.09-.24-.13-.64-.35-1.6-.89-2.93-1.11-1.39-.23-2.48-.34-3.44-.34-1.68,0-2.84,.33-4.3,.75l-.22,.06c-1.83,.52-3.43,1.2-4.87,2.06-1.45,.87-2.64,1.86-3.61,2.71-1.25,1.1-1.97,2.04-2.55,2.81-.41,.54-.74,.97-1.18,1.38-.68-.27-1.88-.79-3.05-1.37-1.28-.64-1.94-1.07-2.27-1.31,.12-.36,.51-1.2,1.74-2.71,1.07-1.32,2.21-2.46,2.65-2.82,2.31-1.88,4.41-3.17,6.41-3.94,1.77-.68,3.55-1,5.6-1m0-1.49c-4.14,0-7.91,1.18-12.95,5.28-1.24,1.01-6.06,6.19-4.78,7.51,1.06,1.08,4.72,2.71,6.13,3.26,.17,.07,.37,.1,.56,.1,.33,0,.65-.1,.84-.27,1.36-1.21,1.8-2.49,3.85-4.29,2.17-1.91,4.24-3.41,7.91-4.46,1.55-.44,2.57-.76,4.12-.76,.85,0,1.86,.1,3.19,.32,1.89,.32,2.84,1.4,3.58,1.4,.18,0,.35-.07,.52-.22,.45-.43,1.36-1.18,1.27-1.66-.13-.69-1.56-2.07-3.28-3.25-2.4-1.63-4-2.38-8.01-2.79-1.01-.1-1.99-.17-2.94-.17h0Zm10.84,8.51c-.29-.16-.6-.33-.95-.48,.23,.64,.37,1.84-.7,3.51-.63,.98-2.7,1.53-4.89,2.12-.58,.15-1.18,.31-1.79,.49-3.91,1.13-6.69,1.69-8.49,.99-.63-.24-1.13-.54-1.53-.86-.14,.18-.27,.35-.4,.52-.12,.16-.24,.31-.36,.47,.52,.42,1.14,.77,1.84,1.04,.67,.26,1.43,.39,2.33,.39,.46,0,.95-.03,1.48-.1,1.38-.17,3.07-.55,5.48-1.25,.59-.17,1.19-.33,1.76-.48,2.54-.68,4.73-1.26,5.62-2.65,.88-1.38,1.1-2.55,1.05-3.45-.15-.08-.3-.16-.45-.24Z"/>
</svg>