<?xml version="1.0" encoding="UTF-8"?>
<svg id="_圖層_1" data-name="圖層 1" xmlns="http://www.w3.org/2000/svg" viewBox="0 0 50 40">
  <defs>
    <style>
      .cls-1 {
        fill: #fff;
      }
    </style>
  </defs>
  <path class="cls-1" d="M25,22.96c7.9,0,14.3-2.16,14.3-4.83,0-2.37-1.61-6.16-10.62-6.96-.53-1.13-1.67-1.91-2.99-1.91h-1.38c-1.32,0-2.46,.79-2.99,1.91-9.01,.8-10.62,4.59-10.62,6.96,0,2.67,6.4,4.83,14.3,4.83Z"/>
  <path class="cls-1" d="M40.27,16.82c.11,.5,.14,.95,.14,1.31,0,3.9-7.75,5.95-15.41,5.95s-15.41-2.04-15.41-5.95c0-.36,.03-.81,.14-1.31-1.57,.03-2.87,1.27-2.9,2.79-.02,.78,.31,1.54,.88,2.09,.54,.52,1.26,.81,2.03,.83h.22s.73,.02,.73,.02c.88,3.39,2.66,6.01,5.67,7.02,1.97,.72,5.15,1.19,8.72,1.19,4.96,0,9.14-.9,10.43-2.12,1.91-1.32,3.13-3.47,3.8-6.09h.72s.22-.02,.22-.02c1.63-.03,2.94-1.34,2.91-2.91-.03-1.52-1.32-2.76-2.9-2.79Z"/>
</svg>