<?xml version="1.0" encoding="UTF-8"?>
<svg id="_圖層_1" data-name="圖層 1" xmlns="http://www.w3.org/2000/svg" viewBox="0 0 50 40">
  <defs>
    <style>
      .cls-1 {
        fill: #fff;
      }
    </style>
  </defs>
  <path class="cls-1" d="M24.93,21.3s.1,.02,.15,.03c-.05-.01-.1-.02-.15-.03h0Zm14.5,3.4s-.56-4.05-6.61-6.92c-.07-.03-.15-.07-.22-.1,0,0,0,0-.01,0-.06-.03-.12-.05-.18-.08,0,0,0,0-.01,0-.06-.03-.13-.05-.19-.08,0,0,0,0,0,0-.07-.03-.13-.05-.2-.08,0,0,0,0,0,0-3.71-1.4-9.08-1.4-11.38-1.4,0,0-1.05,.68-1.34,3.99,.34,.01,.69,.03,1.04,.06,.1-1.19,.31-1.96,.5-2.46,1.38,0,3.39,.03,5.48,.26-.29,.46-.55,.89-.68,1.18-.17,.4-.36,.98-.54,1.64,.27,.06,.55,.12,.81,.19,.17-.61,.34-1.14,.5-1.5,.13-.31,.46-.84,.83-1.4,1.34,.18,2.68,.46,3.86,.87-.15,.26-.28,.49-.35,.67-.28,.66-.58,1.8-.86,3.02,.26,.15,.51,.31,.75,.47,.29-1.28,.61-2.5,.88-3.17,.07-.17,.2-.41,.37-.69,.11,.05,.23,.1,.33,.15h0c2.98,1.41,4.54,3.11,5.32,4.29,.3,.45,.51,.85,.66,1.2l-.19,.36h-4.83c.31,.34,.59,.69,.84,1.04h4.62l.22-.42h0s.48-.93,.48-.93c0,0,0,0,0,0l.08-.16Zm-20.19-4.06c.34,.01,.69,.03,1.04,.06h0c-.36-.02-.7-.04-1.04-.06h0Zm-.63-.02h0c-1-.03-1.88-.03-2.54-.03,.66,0,1.54,0,2.54,.03Zm-6.25-5.22c0,2.46,.92,4.69,2.25,6.13,.02-.04,.03-.08,.05-.12,.4-.94,.82-1.26,.94-1.34l.16-.1h.18c.69,0,1.63,0,2.71,.03,.11-1.27,.34-2.33,.69-3.15,.4-.94,.82-1.26,.94-1.34l.16-.1h.18c.76,0,1.83,0,3.04,.05-.31-1.06-.83-2.13-1.56-3.12-.35,.15-.66,.34-.93,.58-.3-1.15-.72-1.98-1.52-3.05-.73,.3-1.22,1.03-1.61,1.7-.6-.75-1.51-1.9-2.35-2.32-.42,.82-.45,2.27-.48,3.21-.72-.32-1.56-.63-2.34-.46,0,1.32,.15,2.24,.6,3.34-.36-.04-.73-.02-1.1,.06Zm22.3,14.02s0,0,0,0l-.48,.93h0s-.22,.42-.22,.42H15.39s-.85-1.79-.85-4.44c0-4.83,1.41-5.74,1.41-5.74,2.31,0,7.68,0,11.38,1.4h0s0,0,0,0c.07,.03,.13,.05,.2,.08,0,0,0,0,0,0,.06,.03,.13,.05,.19,.08,0,0,0,0,.01,0,.06,.03,.12,.05,.18,.08,0,0,0,0,.01,0,.07,.03,.15,.07,.22,.1,6.04,2.87,6.61,6.92,6.61,6.92l-.08,.16Zm-15.29,.31c.41-2.03,1.05-4.88,1.58-6.11,.13-.29,.38-.72,.68-1.18-2.09-.23-4.11-.26-5.48-.26-.27,.7-.57,1.96-.57,4.15,0,1.52,.31,2.72,.53,3.4h3.27Zm5.27,0c.38-1.9,.94-4.5,1.42-5.64,.07-.18,.2-.41,.35-.67-1.18-.41-2.52-.69-3.86-.87-.37,.56-.7,1.09-.83,1.4-.49,1.13-1.09,3.8-1.5,5.78h4.42Zm8.87-.36c-.15-.34-.36-.75-.66-1.2-.78-1.18-2.34-2.88-5.32-4.29h0c-.11-.05-.22-.1-.33-.15-.17,.28-.3,.52-.37,.69-.43,1.04-.97,3.46-1.34,5.31h7.83l.19-.36Z"/>
</svg>