<?xml version="1.0" encoding="UTF-8"?>
<svg id="_圖層_1" data-name="圖層 1" xmlns="http://www.w3.org/2000/svg" viewBox="0 0 50 40">
  <defs>
    <style>
      .cls-1 {
        fill: #fff;
      }
    </style>
  </defs>
  <path class="cls-1" d="M37.15,9.35c-3.21-1.03-5.12,1.92-5.12,1.92,.98-2.26-.71-4.99-.71-4.99,0,0-1.68,1.13-2.27,3.25-.25,.89,.04,1.89,.34,2.6-.53,.16-.95,.42-1.29,.78-.48,.52-.75,1.24-.81,2.14-.73-.13-1.33-.05-1.84,.23-.86,.48-1.19,1.44-1.42,2.29-.88-.36-1.59-.27-2.06-.12-.62,.21-1.15,.65-1.51,1.27-.95-.47-1.92-.47-2.73,.01-.8,.48-1.34,1.37-1.5,2.42-.85-.57-1.84-.78-2.71-.55-.58,.15-1.56,.64-2.08,2.18-1.28-.55-2.68-.06-3.52,.82-.78,.82-1.18,2.11-.47,3.29-.9,1.04-1.3,2.33-1.1,3.59,.19,1.18,.87,2.17,1.84,2.66,.62,.37,1.33,.55,2.08,.55,.59,0,1.21-.12,1.84-.35,.86-.33,1.7-.87,2.47-1.59,.59,.19,1.2,.29,1.82,.29,.14,0,.28,0,.42-.01,1.09-.08,2.12-.46,2.91-1.08,.78-.61,1.28-1.39,1.48-2.26,.93-.04,2.16-.46,2.99-1.29,.59-.59,.91-1.3,.96-2.08,1.02,0,1.74-.23,2.25-.73,.37-.37,.61-.88,.72-1.55,.04-.22,.06-.46,.07-.73,.07,0,.14,0,.21,0,.32,0,.65-.05,.98-.16,.69-.22,1.34-.66,1.83-1.23,.87-1.01,1.07-2.21,.56-3.22,1.47-1.42,1.01-3.01,.72-3.99,.76-.11,1.77-.34,2.45-.81,2.46-1.73,2.21-3.56,2.21-3.56Zm-6.35,7.86l-.38,.3,.29,.4c.75,1.03-.01,2.06-.26,2.36-.7,.81-1.58,1.1-2.26,1.01,0-.1-.01-.21-.02-.31l-1.02,.07c.11,1.56-.03,2.4-.46,2.83-.36,.36-1.02,.49-2.01,.41l-.62-.05,.07,.62c.08,.71-.13,1.33-.64,1.84-.58,.58-1.48,.92-2.17,.98,0-.38-.07-.76-.18-1.16l-.98,.27c.51,1.81-.44,2.89-1.06,3.37-1.01,.79-2.41,1.05-3.73,.77,.16-.19,.31-.38,.45-.59l-.83-.59c-1.82,2.55-4.47,3.61-6.29,2.54l-.03-.02c-.68-.34-1.16-1.05-1.3-1.92-.17-1.06,.23-2.16,1.1-3.02l.04-.69c-.7-.85-.37-1.75,.16-2.31,.93-.97,2.1-.86,2.79-.35l.8-.3c.24-1.15,.77-1.87,1.53-2.07,.81-.21,1.83,.19,2.54,.99l.89-.39c-.11-1.11,.31-2.15,1.04-2.59,.6-.36,1.36-.27,2.13,.25l.76-.23c.24-.61,.65-1.03,1.15-1.2,.53-.18,1.15-.07,1.81,.32l.75-.3c.03-.1,.05-.21,.08-.31,.2-.77,.42-1.63,1.01-1.96,.39-.22,.96-.21,1.69,.02l.66-.51c-.08-1.73,.59-2.32,1.32-2.56,0,0,0,0,0,0,0,0,.06-.02,.15-.05,.06-.02,.12-.03,.19-.04,.22-.04,.52-.07,.8,.03,.41,.15,.62,.55,.68,.7,.02,.08,.05,.16,.07,.24,.3,1.01,.64,2.14-.71,3.21Z"/>
</svg>