<?xml version="1.0" encoding="UTF-8"?>
<svg id="_圖層_1" data-name="圖層 1" xmlns="http://www.w3.org/2000/svg" viewBox="0 0 50 40">
  <defs>
    <style>
      .cls-1 {
        fill: #fff;
      }
    </style>
  </defs>
  <path class="cls-1" d="M41.18,14.91h0s0,0,0,0c0-.85-.43-1.65-1.28-2.38-.74-.63-1.78-1.2-3.1-1.67-.15-.06-.31-.11-.47-.16,.65,.76,.98,1.44,1,1.5,.04,.08,.06,.16,.08,.24,1.62,.75,2.55,1.63,2.55,2.48,0,0,0,0,0,0,0,0,0,0,0,.01-.02,2.03-5.33,4.3-12.96,4.3-2.22,0-4.24-.19-6-.51,0,0,0-.01,0-.02l-2.57-.6c-2.75-.84-4.38-2.04-4.39-3.16,0,0,0,0,0-.01,0,0,0,0,0,0,0-.92,1.1-1.9,3.01-2.68,.1-.29,.22-.6,.35-.93l.05-.12c.06-.17,.14-.33,.22-.49-.16,.05-.31,.11-.47,.16-1.32,.48-2.36,1.04-3.1,1.67-.85,.73-1.28,1.53-1.28,2.38,0,0,0,0,0,0h0s0,0,0,0c0,.03,0,.06,0,.09,.06,2.57,.99,6.49,3.46,9.22,1.64,1.82,2.87,2.5,3.77,2.99,.06,.03,.12,.07,.18,.1,.23,.13,.37,.36,.37,.62,0,.07,0,.53,0,.7,.02,.59,.4,1.42,2.11,2.06,1.16,.44,2.69,.68,4.29,.68,0,0,.01,0,.02,0,0,0,0,0,0,0,0,0,0,0,0,0,1.6,0,3.11-.24,4.27-.68,1.71-.64,2.09-1.47,2.11-2.06,0-.17,0-.64,0-.7,0-.26,.14-.5,.37-.62,0,0,0,0,0,0,.18-.1,.36-.19,.54-.3,.31-.17,.65-.37,1.02-.64,.01,0,.03-.02,.04-.03h0c.67-.47,1.45-1.12,2.35-2.13,2.46-2.73,3.4-6.65,3.46-9.22,0-.03,0-.06,0-.09,0,0,0,0,0,0Zm-10.03,8.48c-.05,.1-.1,.19-.14,.28-.05,.1-.1,.19-.15,.28-.1,.19-.21,.37-.31,.56-.22,.38-.45,.75-.7,1.13-.25,.38-.52,.75-.81,1.14-.19,.25-.39,.5-.6,.76,.12-.45,.23-.9,.34-1.35,.13-.58,.24-1.16,.34-1.73,.23-1.37,.39-2.74,.47-4.1,1.03-.07,2.03-.18,2.99-.34-.13,.37-.26,.73-.4,1.09-.3,.77-.64,1.54-1.02,2.29Zm-6.68-3.04c.09,1.37,.24,2.73,.47,4.1,.1,.58,.21,1.16,.34,1.73,.1,.46,.22,.92,.34,1.37-.23-.28-.45-.56-.65-.83-.29-.38-.56-.76-.81-1.14-.25-.38-.48-.75-.7-1.13-.11-.19-.21-.37-.31-.56-.05-.09-.1-.19-.15-.28-.05-.1-.1-.19-.14-.28-.38-.75-.72-1.51-1.02-2.29-.13-.34-.26-.69-.39-1.04,.97,.15,1.98,.27,3.02,.34Zm-7.28,3.06c-1.02-1.13-1.85-2.63-2.41-4.33-.17-.52-.31-1.05-.43-1.59,.59,.45,1.34,.87,2.24,1.24,.09,.41,.19,.81,.32,1.22,.31,1.01,.73,2,1.28,2.92,.54,.92,1.21,1.79,1.99,2.54,.57,.55,1.21,1.03,1.89,1.43-1.16-.48-2.1-1.04-2.73-1.47h0c-.61-.43-1.32-1.03-2.15-1.95Zm19.63,0c-.89,.98-1.64,1.6-2.28,2.03-.59,.38-1.39,.85-2.35,1.28,.58-.36,1.13-.79,1.63-1.27,.78-.75,1.45-1.61,1.99-2.54,.54-.93,.97-1.91,1.28-2.92,.13-.42,.24-.84,.33-1.27,.9-.37,1.65-.78,2.24-1.24-.11,.54-.26,1.07-.43,1.59-.56,1.71-1.39,3.2-2.41,4.33Z"/>
  <path class="cls-1" d="M20.17,17.42c1.6,.13,3.38,.23,4.73-.45,.14-.07,.27-.13,.4-.19,.17,.13,.33,.26,.5,.37,1.3,.92,2.54,1.31,4.16,.89,1.01-.26,1.6-.87,2.3-1.24,.21-.11,.44-.2,.69-.26,.31-.07,.66-.07,1.07,.01,3.25,.65,4.55-.75,4.7-1.61,.15-.88-1.63-2.05-2.31-2.33,0,0-.88-1.89-2.7-2.64-1.35-.55-2.72-.67-3.93-.63-.75-.42-1.55-.71-2.31-.71-.86,0-2.05,.49-3.3,1.19-.91-.25-1.72-.45-2.21-.51-.7-.09-1.29,.08-1.73,.28-.79,.36-1.52,1.11-1.84,1.95-.16,.41-.31,.79-.42,1.13h0c-6.47,2.87,.56,4.62,2.2,4.76Zm13.87-5.71c1.33,.82,2,2.28,1.56,3.97,0,0-1.04-3.33-5.69-4.64,0,0,2.32-.45,4.13,.67Zm-1.76,3.19s-2.13,1.49-4.24,1.2c-1.54-.22-2.56-1.44-2.84-3.16,0,0,2.29,2.63,7.08,1.96Zm-11.37-3.15c1.75-1.21,4.09-.89,4.09-.89-4.58,1.55-5.44,4.93-5.44,4.93-.52-1.66,.07-3.16,1.35-4.05Z"/>
</svg>