<?xml version="1.0" encoding="UTF-8"?>
<svg id="_圖層_1" data-name="圖層 1" xmlns="http://www.w3.org/2000/svg" viewBox="0 0 50 40">
  <defs>
    <style>
      .cls-1 {
        fill: #fff;
      }
    </style>
  </defs>
  <path class="cls-1" d="M36.37,12.46c-.17-.58-.75-.88-1.17-1.1-.08-.04-.19-.1-.26-.14-.12-.24-.41-.75-.86-1.25-.32-.35-.67-.63-1.04-.83l1.63-2.64c.21-.34,.11-.79-.24-1.01-.34-.21-.79-.11-1.01,.24l-1.87,3.03s-.08,0-.12,0c-.88-.92-1.76-1.41-2.62-1.45-.61-.03-1.19,.17-1.72,.58-.24-.09-.58-.15-.94-.07-.31,.07-.75,.29-1.09,.92-.5,.93-.64,1.72-.67,2.08-.39,.49-.57,.98-.52,1.44-.22-.12-.46-.19-.72-.19h0c-.51,0-.97,.26-1.24,.69l-2.04,3.24c-.43,.68-.22,1.59,.46,2.02l.75,.47c-.09,0-.17,.02-.24,.03-.38-.19-.91-.22-1.48-.07-.75,.21-1.32,.68-1.51,1.26,0,0,0,.02,0,.03l-.81,2.95c-.03,.11-.07,.23-.11,.35l-.02,.08c-.11,.35-.18,1.01,.66,1.52,.56,.33,1.04,.73,1.43,1.18,.36,.42,.76,.75,1.18,.99l-4.13,6.68c-.21,.34-.11,.79,.24,1.01,.12,.07,.25,.11,.38,.11,.25,0,.48-.12,.62-.35l4.26-6.89c.66,.29,1.27,.69,1.78,1.17,.55,.52,1.02,.83,1.49,.96,.18,.05,.36,.08,.54,.08,.47,0,.92-.19,1.3-.57,.07-.07,.15-.14,.23-.21,.32-.28,1.12-1.03,1.57-2.06,.21-.48,.36-.98,.45-1.47,.06-.38,.18-.76,.35-1.18,.06-.14,.1-.27,.12-.41,.23,.13,.48,.2,.74,.2,.51,0,.97-.26,1.24-.69l2.04-3.24c.43-.68,.22-1.59-.46-2.02l-1.24-.78c.43,.2,1.01,.29,1.53,.29,.23,0,.45-.02,.64-.06,.77-.15,1.09-.54,1.22-.85,0,0,0-.02,.01-.03l1.14-3.14c.21-.4,.19-.73,.13-.94Zm-3.85,6.96l-2.04,3.24c-.08,.13-.22,.2-.35,.2-.08,0-.15-.02-.22-.06l-9.01-5.65c-.2-.12-.25-.38-.13-.58l2.04-3.24c.08-.13,.22-.2,.35-.2,.08,0,.15,.02,.22,.06l9.01,5.65c.2,.12,.25,.38,.13,.58Z"/>
</svg>