<?xml version="1.0" encoding="UTF-8"?>
<svg id="_圖層_1" data-name="圖層 1" xmlns="http://www.w3.org/2000/svg" viewBox="0 0 50 40">
  <defs>
    <style>
      .cls-1 {
        fill: #fff;
      }
    </style>
  </defs>
  <path class="cls-1" d="M39.25,19.19h0c-.03,2.42-.91,6.17-3.25,8.77-1.55,1.71-2.71,2.35-3.55,2.81-.06,.03-.11,.06-.17,.09-.21,.12-.35,.34-.35,.59,0,.06,0,.5,0,.66-.02,.55-.37,1.34-1.98,1.94-1.09,.41-2.53,.64-4.04,.64s-2.95-.23-4.04-.64c-1.61-.6-1.97-1.39-1.98-1.94,0-.16,0-.6,0-.66,0-.24-.13-.47-.35-.59-.05-.03-.11-.06-.17-.09-.85-.46-2.01-1.1-3.55-2.81-2.35-2.6-3.22-6.35-3.25-8.77h0s0,0,0,0c0-.48,.41-.92,1.2-1.33,.3-.15,.65-.3,1.05-.43v1.28c-.29,.19-.44,.39-.44,.58,0,1.08,4.73,2.28,11.53,2.28s11.53-1.2,11.53-2.28-4.73-2.28-11.53-2.28c-1.17,0-2.28,.04-3.32,.1v-.92c1.07-.06,2.18-.09,3.32-.09,3.48,0,6.75,.29,9.23,.83,1.24,.27,2.22,.58,2.92,.94,.8,.41,1.2,.85,1.2,1.33,0,0,0,0,0,0ZM14.82,8.81h-1.92v1.32l1.92,.04v-1.36Zm0-1.93l-1.92,.04v1.32h1.92v-1.36Zm7.77-.16v1.52h18.05v-1.89l-18.05,.37Zm0,3.62l18.05,.37v-1.89H22.59v1.52Zm-2.17-5.02c-.34,0-.64,.14-.86,.37-.21-.23-.52-.37-.86-.37s-.64,.14-.86,.37c-.21-.23-.52-.37-.86-.37-.65,0-1.18,.53-1.18,1.18v12.93c.2,.07,.41,.14,.64,.21V6.49c0-.3,.24-.54,.54-.54s.54,.24,.54,.54v13.41c.21,.04,.42,.09,.64,.13V6.49c0-.3,.24-.54,.54-.54s.54,.24,.54,.54v13.71c.21,.03,.42,.06,.64,.09V6.49c0-.3,.24-.54,.54-.54s.54,.24,.54,.54v13.92c.21,.02,.42,.04,.64,.06V6.49c0-.65-.53-1.18-1.18-1.18Z"/>
</svg>