<?xml version="1.0" encoding="utf-8"?>
<!-- Generator: Adobe Illustrator 27.0.0, SVG Export Plug-In . SVG Version: 6.00 Build 0)  -->
<svg version="1.1" id="圖層_1" xmlns="http://www.w3.org/2000/svg" xmlns:xlink="http://www.w3.org/1999/xlink" x="0px" y="0px"
	 viewBox="0 0 66 18" style="enable-background:new 0 0 66 18;" xml:space="preserve">
<style type="text/css">
	.st0{fill:#231815;}
</style>
<g>
	<polygon class="st0" points="26.9,3.9 27.2,3.9 27.2,2.6 28.6,2.6 28.6,2.3 27.2,2.3 27.2,1.5 26.9,1.5 26.9,2.3 26.1,2.3 
		26.1,2.6 26.9,2.6 	"/>
	<polygon class="st0" points="29.9,5.8 30.2,5.8 30.2,4.5 31.5,4.5 31.5,4.3 30.2,4.3 30.2,3.4 29.9,3.4 29.9,4.3 29,4.3 29,4.5 
		29.9,4.5 	"/>
	<polygon class="st0" points="33.9,3.9 34.1,3.9 34.1,2.6 35.5,2.6 35.5,2.3 34.1,2.3 34.1,1.5 33.9,1.5 33.9,2.3 33,2.3 33,2.6 
		33.9,2.6 	"/>
	<polygon class="st0" points="37.8,5.8 38.1,5.8 38.1,4.5 39.4,4.5 39.4,4.3 38.1,4.3 38.1,3.4 37.8,3.4 37.8,4.3 37,4.3 37,4.5 
		37.8,4.5 	"/>
	<path class="st0" d="M55,3.9V0H41.4h-0.8H25.4h-0.8H11v3.9h2V18h2.6V3.9h9.1v4.9h16.8V3.9h9.1V18h2.6V3.9H55z M14.5,17h-0.6V3.9
		h0.6V17z M24.4,2.9h-8.9h-2.6h-1V1h12.5V2.9z M40.4,7.8H25.6V1h14.8V7.8z M41.6,2.9V1h12.5v1.9h-1h-2.6H41.6z M52.1,17h-0.6V3.9
		h0.6V17z"/>
	<path class="st0" d="M0,17.9h11.7v-2.7H0V17.9z M0.8,16h10.1v1.2H0.8V16z"/>
	<path class="st0" d="M54.3,15.2v2.7H66v-2.7H54.3z M65.2,17.1H55.1V16h10.1V17.1z"/>
</g>
</svg>
