<?xml version="1.0" encoding="utf-8"?>
<!-- Generator: Adobe Illustrator 18.0.0, SVG Export Plug-In . SVG Version: 6.00 Build 0)  -->
<!DOCTYPE svg PUBLIC "-//W3C//DTD SVG 1.1//EN" "http://www.w3.org/Graphics/SVG/1.1/DTD/svg11.dtd">
<svg version="1.1" id="圖層_1" xmlns="http://www.w3.org/2000/svg" xmlns:xlink="http://www.w3.org/1999/xlink" x="0px" y="0px"
	 viewBox="0 0 50 50" enable-background="new 0 0 50 50" xml:space="preserve">
<g>
	<rect fill="#D9DADA" width="50" height="50"/>
	<path fill="#1A1A1A" d="M34.4,37.6c-5-3.9-10-7.8-14.9-11.8c-0.7-0.6-1.4-1.1-2.1-1.7c0,0.6,0,1.2,0,1.8c5-3.9,10-7.8,14.9-11.8
		c0.7-0.6,1.4-1.1,2.1-1.7c1.3-1-0.5-2.8-1.8-1.8c-5,3.9-10,7.8-14.9,11.8c-0.7,0.6-1.4,1.1-2.1,1.7c-0.5,0.4-0.5,1.4,0,1.8
		c5,3.9,10,7.8,14.9,11.8c0.7,0.6,1.4,1.1,2.1,1.7C33.9,40.3,35.7,38.6,34.4,37.6L34.4,37.6z"/>
</g>
</svg>
