<?xml version="1.0" encoding="UTF-8"?>
<svg id="_圖層_1" data-name="圖層 1" xmlns="http://www.w3.org/2000/svg" viewBox="0 0 50 50">
  <defs>
    <style>
      .cls-1 {
        fill: #fff;
      }
    </style>
  </defs>
  <path class="cls-1" d="M30.97,28.13c4.84-2.56,7.98-7.65,7.98-13.2,0-8.23-6.7-14.93-14.93-14.93S9.09,6.7,9.09,14.93c0,5.97,3.47,11.24,8.8,13.62-6.93,2.86-11.63,9.74-11.63,17.33v1.32H43.74v-1.32c0-8.16-5.16-15.21-12.77-17.75Zm-5.77-.98c-.44-.03-.89,.01-1.33,.04h-.11c-6.63-.13-12.03-5.64-12.03-12.26S17.24,2.64,24.02,2.64s12.29,5.51,12.29,12.29c0,6.36-4.77,11.62-11.11,12.22Zm-1.48,2.7h.1c.51,.05,1.03,0,1.46-.05,8.3,.14,15.1,6.57,15.77,14.76H8.96c.64-7.84,6.89-14.11,14.76-14.71Z"/>
</svg>