<?xml version="1.0" encoding="utf-8"?>
<!-- Generator: Adobe Illustrator 18.0.0, SVG Export Plug-In . SVG Version: 6.00 Build 0)  -->
<!DOCTYPE svg PUBLIC "-//W3C//DTD SVG 1.1//EN" "http://www.w3.org/Graphics/SVG/1.1/DTD/svg11.dtd">
<svg version="1.1" id="圖層_1" xmlns="http://www.w3.org/2000/svg" xmlns:xlink="http://www.w3.org/1999/xlink" x="0px" y="0px"
	 viewBox="599.3 0 720.9 1080" enable-background="new 599.3 0 720.9 1080" xml:space="preserve">
<g>
	<path fill="#231815" d="M1320,1002.9c-10.3-213.4-20.6-419.4-30.9-632.9c0-5.1,0-12.9,0-18c-5.1-48.9-54-43.7-90-43.7
		s-69.4,0-105.4,0c0-28.3,0-66.6,0-97.4c0-33.4,0-61.4,0-94.9c0-23.1,2.6-46.3-7.7-66.9C1065.4,8,1024.3,0,983.1,0
		c-38.6,0-91,1-124.5,29.3c-19.3,19.3-17,50.7-17,81.5s0,53.7,0,82c0,36,0,79.4,0,115.4c-43.7,0-90,0-133.7,0
		c-36,0-69.4,12.9-74.6,54c-7.7,30.9-7.7,51.7-7.7,82.6c-5.1,126-10.3,249.4-15.4,372.9c-2.6,54-5.1,108-7.7,159.4
		c0,20.6-5.1,46.3-2.6,66.9c5.1,38.6,48.9,33.4,77.1,33.4c51.4,0,105.4,0,156.9,0c123.4,0,246.9,0,370.3,0c25.7,0,56.6,5.1,82.3-2.6
		C1325.1,1062,1320,1031.1,1320,1002.9z M872.6,85.1c0-23.1,11.4-38.4,31.9-48.6c12.9-5.1,29.9-7.3,42.8-7.3c12.9,0,32.1,0.3,45,0.3
		c28.3,0,47.5,11.9,57.8,40.2c7.7,18,5.1,38.6,5.1,56.6c0,30.9,0,53.7,0,84.6c0,28.3,0,69.1,0,97.4c-7.7,0-12.9,0-20.6,0
		c-54,0-108,0-162,0C872.6,233.7,870,157.1,872.6,85.1z M1266,1056.9c-100.3,0-198,0-298.3,0s-198,0-298.3,0
		c-15.4,0-28.3,2.6-33.4-18c0-5.1,0-12.9,0-18c2.6-36,2.6-74.6,5.1-110.6c5.1-118.3,10.3-236.6,15.4-354.9
		c2.6-48.9,5.1-87.7,5.1-136.6c0-20.6,1.1-41,6.3-61.5c5.1-23.1,21.7-27,39.7-27c15.4,0,22.2-1.5,37.7-1.5c30.9,0,57.8,0,91.2,0
		c0,20.6,0,43.7,0,64.3c0,5.1,36,0,36-10.3c0-18,0-36,0-54c12.9,0,23.1,0,36,0c48.9,0,97.7,0,146.6,0c0,23.1,0,43.7,0,64.3
		c0,5.1,36,0,36-10.3c0-18,0-38.6,0-56.6c41.1,0,82.3,0,120.9,0c20.6,0,36,7.7,38.6,30.9c10.3,187.7,18,362.9,28.3,550.6
		c2.6,38.6,2.6,74.6,5.1,113.1c0,7.7,2.6,12.9,0,20.6C1284,1062,1278.9,1056.9,1266,1056.9z"/>
	<path fill="#231815" d="M818.6,738c5.1,0,7.7,0,10.3-2.6c18-15.4,23.1-30.9,48.9-54c28.3-23.1,54-43.7,100.3-56.6
		c20.6-5.1,33.4-10.3,54-10.3c10.3,0,23.1,0,41.1,5.1c23.1,5.1,36,18,46.3,18c2.6,0,5.1,0,7.7-2.6c5.1-5.1,18-15.4,15.4-20.6
		c-2.6-7.7-20.6-25.7-41.1-41.1c-30.9-20.6-51.4-30.9-102.9-36c-12.9-2.6-25.7-2.6-38.6-2.6c-54,0-100.3,15.4-167.1,66.9
		c-15.4,12.9-77.1,77.1-61.7,95.1c12.9,12.9,61.7,33.4,79.7,41.1C813.4,738,816,738,818.6,738z M749.1,686.6
		c2.6-5.1,7.7-15.4,23.1-33.4c12.9-18,28.3-33.4,33.4-36c30.9-23.1,56.6-41.1,82.3-48.9c23.1-7.7,46.3-12.9,72-12.9
		c10.3,0,23.1,0,36,2.6c23.1,2.6,41.1,5.1,54,10.3c12.9,5.1,25.7,12.9,38.6,20.6c7.7,5.1,18,12.9,23.1,18c2.6,2.6,5.1,5.1,7.7,7.7
		l-2.6,2.6c0,0-2.6,0-2.6-2.6c-7.7-5.1-20.6-10.3-38.6-12.9c-18-2.6-30.9-5.1-43.7-5.1c-20.6,0-36,5.1-54,10.3h-2.6
		c-23.1,7.7-43.7,15.4-61.7,25.7s-33.4,23.1-46.3,33.4c-15.4,12.9-25.7,25.7-33.4,36c-5.1,7.7-10.3,12.9-15.4,18
		c-7.7-2.6-23.1-10.3-38.6-18C762,694.3,754.3,689.1,749.1,686.6z"/>
	<path fill="#231815" d="M1140,784.3c2.6,7.7,5.1,23.1-7.7,43.7c-7.7,12.9-33.4,20.6-61.7,25.7c-7.7,2.6-15.4,5.1-23.1,5.1
		c-54,15.4-87.4,23.1-110.6,15.4c-7.7-2.6-15.4-7.7-20.6-10.3c-2.6,2.6-2.6,5.1-5.1,7.7c-2.6,0-2.6,0-5.1,2.6
		c7.7,5.1,15.4,10.3,23.1,12.9c7.7,2.6,18,5.1,30.9,5.1c5.1,0,12.9,0,18,0c18-2.6,38.6-7.7,69.4-15.4c7.7-2.6,15.4-5.1,23.1-5.1
		c33.4-7.7,61.7-15.4,72-33.4c10.3-18,12.9-30.9,12.9-43.7c-2.6,0-2.6-2.6-5.1-2.6C1147.7,786.9,1142.6,786.9,1140,784.3z"/>
	<path fill="#231815" d="M1152.9,720c-20.6-15.4-38.6-23.1-61.7-28.3c0,0,0-2.6,2.6-2.6c10.3-18,12.9-30.9,12.9-43.7
		c-2.6,0-2.6-2.6-5.1-2.6c-2.6-2.6-7.7-5.1-12.9-5.1c2.6,7.7,5.1,23.1-7.7,43.7c-2.6,2.6-5.1,5.1-7.7,7.7c-5.1,0-12.9-2.6-20.6-2.6
		c-12.9-2.6-25.7-2.6-38.6-2.6c-43.7,0-82.3,10.3-131.1,41.1c-7.7-2.6-12.9-5.1-15.4-10.3c-2.6,2.6-2.6,5.1-5.1,7.7
		c-2.6,2.6-2.6,5.1-5.1,5.1c2.6,2.6,7.7,5.1,10.3,7.7c-5.1,5.1-12.9,10.3-18,15.4C834,763.7,772.3,828,787.7,846
		c12.9,12.9,61.7,33.4,79.7,41.1c2.6,0,5.1,0,7.7,0c5.1,0,7.7,0,10.3-2.6c18-15.4,23.1-30.9,48.9-54c28.3-23.1,54-43.7,100.3-56.6
		c20.6-5.1,33.4-10.3,54-10.3c10.3,0,23.1,0,41.1,5.1c23.1,5.1,36,18,46.3,18c2.6,0,5.1,0,7.7-2.6c5.1-5.1,18-15.4,15.4-20.6
		C1194,753.4,1176,735.4,1152.9,720z M1170.9,763.7c0,0-2.6,0-2.6-2.6c-7.7-5.1-20.6-10.3-38.6-12.9c-18-2.6-30.9-5.1-43.7-5.1
		c-20.6,0-36,5.1-54,10.3h-2.6c-23.1,7.7-43.7,15.4-61.7,25.7s-33.4,23.1-46.3,33.4c-15.4,12.9-25.7,25.7-33.4,36
		c-5.1,7.7-10.3,12.9-15.4,18c-7.7-2.6-23.1-10.3-38.6-18c-15.4-7.7-25.7-12.9-28.3-15.4c2.6-5.1,7.7-15.4,23.1-33.4
		c12.9-15.4,28.3-30.9,33.4-36c10.3-7.7,18-15.4,28.3-20.6c7.7-5.1,15.4-10.3,20.6-12.9c10.3-5.1,20.6-10.3,33.4-15.4
		c23.1-7.7,46.3-12.9,72-12.9c7.7,0,12.9,0,20.6,0c5.1,0,10.3,0,15.4,0c7.7,0,15.4,2.6,20.6,2.6c12.9,2.6,23.1,5.1,33.4,7.7
		c12.9,5.1,25.7,12.9,38.6,20.6c7.7,5.1,18,12.9,23.1,18c2.6,2.6,5.1,5.1,7.7,7.7C1170.9,761.1,1170.9,763.7,1170.9,763.7z"/>
</g>
</svg>
